<svg width="292" height="68" viewBox="0 0 292 68" fill="none" xmlns="http://www.w3.org/2000/svg">
<path d="M1.44 35.244L4.752 34.704V8.496L1.44 7.992V7.2H12.42C15.012 7.2 17.076 7.44 18.612 7.92C20.148 8.4 21.264 9.132 21.96 10.116C22.656 11.076 23.004 12.348 23.004 13.932C23.004 17.388 20.82 19.596 16.452 20.556V20.736C19.116 21.096 21.18 21.888 22.644 23.112C24.132 24.336 24.876 26.04 24.876 28.224C24.876 30.864 23.904 32.82 21.96 34.092C20.04 35.364 17.436 36 14.148 36H1.44V35.244ZM12.708 20.448C14.628 20.448 16.104 19.908 17.136 18.828C18.168 17.748 18.684 16.212 18.684 14.22V14.004C18.684 10.068 16.596 8.1 12.42 8.1H8.712V20.448H12.708ZM14.148 35.136C16.188 35.136 17.772 34.548 18.9 33.372C20.028 32.172 20.592 30.468 20.592 28.26V27.864C20.592 25.68 20.028 24.048 18.9 22.968C17.796 21.888 16.212 21.348 14.148 21.348H8.712V35.136H14.148ZM28.2642 36V35.244L31.5762 34.704V8.496L28.2642 7.992V7.2H49.9362V15.444H48.9642L46.1922 8.1H35.5362V21.06H40.2162L42.3402 15.84H43.2762V27.216H42.3402L40.1802 21.924H35.5362V35.136H46.8402L49.7922 27.216H50.7282V36H28.2642ZM51.7615 36V35.244L55.2895 33.804L65.6935 6.48H66.2695L76.0975 34.704L79.4095 35.244V36H68.8255V35.244L71.7775 34.776L68.7175 26.244H59.1415L56.2255 33.804L59.4655 35.244V36H51.7615ZM59.4295 25.488H68.4655L64.1455 12.816L59.4295 25.488ZM83.4213 36V35.244L86.7333 34.704V8.1H80.7933L78.0573 15.228H77.0133V7.2H100.449V15.228H99.3693L96.6693 8.1H90.6933V34.704L94.0053 35.244V36H83.4213ZM108.376 36V35.244L111.724 34.704V23.76L102.976 8.496L100.132 7.992V7.2H110.968V7.992L107.62 8.496L115.18 21.564L122.128 9.72L117.808 7.992V7.2H125.872V7.992L123.1 9.756L115.612 22.572V34.704L118.96 35.244V36H108.376ZM135.034 35.244L138.346 34.704V8.496L135.034 7.992V7.2H146.014C148.606 7.2 150.67 7.44 152.206 7.92C153.742 8.4 154.858 9.132 155.554 10.116C156.25 11.076 156.598 12.348 156.598 13.932C156.598 17.388 154.414 19.596 150.046 20.556V20.736C152.71 21.096 154.774 21.888 156.238 23.112C157.726 24.336 158.47 26.04 158.47 28.224C158.47 30.864 157.498 32.82 155.554 34.092C153.634 35.364 151.03 36 147.742 36H135.034V35.244ZM146.302 20.448C148.222 20.448 149.698 19.908 150.73 18.828C151.762 17.748 152.278 16.212 152.278 14.22V14.004C152.278 10.068 150.19 8.1 146.014 8.1H142.306V20.448H146.302ZM147.742 35.136C149.782 35.136 151.366 34.548 152.494 33.372C153.622 32.172 154.186 30.468 154.186 28.26V27.864C154.186 25.68 153.622 24.048 152.494 22.968C151.39 21.888 149.806 21.348 147.742 21.348H142.306V35.136H147.742ZM175.934 36.72C173.318 36.72 170.978 36.084 168.914 34.812C166.85 33.54 165.242 31.764 164.09 29.484C162.938 27.18 162.362 24.552 162.362 21.6C162.362 18.648 162.938 16.032 164.09 13.752C165.242 11.448 166.85 9.66 168.914 8.388C170.978 7.116 173.318 6.48 175.934 6.48C178.55 6.48 180.89 7.116 182.954 8.388C185.018 9.66 186.626 11.448 187.778 13.752C188.93 16.032 189.506 18.648 189.506 21.6C189.506 24.552 188.93 27.18 187.778 29.484C186.626 31.764 185.018 33.54 182.954 34.812C180.89 36.084 178.55 36.72 175.934 36.72ZM175.934 35.892C177.662 35.892 179.21 35.436 180.578 34.524C181.97 33.612 183.062 32.292 183.854 30.564C184.646 28.812 185.042 26.748 185.042 24.372V18.828C185.042 16.452 184.646 14.4 183.854 12.672C183.062 10.92 181.97 9.588 180.578 8.676C179.21 7.764 177.662 7.308 175.934 7.308C174.182 7.308 172.622 7.764 171.254 8.676C169.886 9.588 168.806 10.92 168.014 12.672C167.222 14.4 166.826 16.452 166.826 18.828V24.372C166.826 26.748 167.222 28.812 168.014 30.564C168.806 32.292 169.886 33.612 171.254 34.524C172.622 35.436 174.182 35.892 175.934 35.892ZM206.977 36.72C204.361 36.72 202.021 36.084 199.957 34.812C197.893 33.54 196.285 31.764 195.133 29.484C193.981 27.18 193.405 24.552 193.405 21.6C193.405 18.648 193.981 16.032 195.133 13.752C196.285 11.448 197.893 9.66 199.957 8.388C202.021 7.116 204.361 6.48 206.977 6.48C209.593 6.48 211.933 7.116 213.997 8.388C216.061 9.66 217.669 11.448 218.821 13.752C219.973 16.032 220.549 18.648 220.549 21.6C220.549 24.552 219.973 27.18 218.821 29.484C217.669 31.764 216.061 33.54 213.997 34.812C211.933 36.084 209.593 36.72 206.977 36.72ZM206.977 35.892C208.705 35.892 210.253 35.436 211.621 34.524C213.013 33.612 214.105 32.292 214.897 30.564C215.689 28.812 216.085 26.748 216.085 24.372V18.828C216.085 16.452 215.689 14.4 214.897 12.672C214.105 10.92 213.013 9.588 211.621 8.676C210.253 7.764 208.705 7.308 206.977 7.308C205.225 7.308 203.665 7.764 202.297 8.676C200.929 9.588 199.849 10.92 199.057 12.672C198.265 14.4 197.869 16.452 197.869 18.828V24.372C197.869 26.748 198.265 28.812 199.057 30.564C199.849 32.292 200.929 33.612 202.297 34.524C203.665 35.436 205.225 35.892 206.977 35.892ZM238.92 36.36L228.192 8.496V33.804L231.648 35.244V36H223.944V35.244L227.328 33.804V8.496L224.016 7.992V7.2H231.972L241.008 30.312L250.224 7.2H257.496V7.992L254.184 8.496V34.704L257.496 35.244V36H246.912V35.244L250.224 34.704V9.576L239.568 36.36H238.92Z" fill="black"/>
<path d="M240.397 42.4277L240.204 42.7617L239.343 44.2031C239.038 44.7188 238.716 45.2344 238.376 45.75L238.183 46.0312L237.743 45.7324C237.802 45.6035 237.843 45.5098 237.866 45.4512C238.112 44.9473 238.235 44.5898 238.235 44.3789C238.235 43.9336 237.843 43.7109 237.058 43.7109C236.343 43.7109 235.716 43.9805 235.177 44.5195C234.638 45.0469 234.368 45.6621 234.368 46.3652C234.368 46.7402 234.485 47.1855 234.72 47.7012L235.563 49.5117C235.845 50.1211 235.985 50.7891 235.985 51.5156C235.985 52.9336 235.206 54.2754 233.647 55.541C232.3 56.6309 231.104 57.1758 230.062 57.1758C229.464 57.1758 228.972 57.0293 228.585 56.7363C228.198 56.4316 228.005 56.0449 228.005 55.5762C228.005 55.0254 228.146 54.4922 228.427 53.9766C229.153 55.2188 230.056 55.8398 231.134 55.8398C231.989 55.8398 232.745 55.5469 233.401 54.9609C234.058 54.375 234.386 53.6953 234.386 52.9219C234.386 52.5117 234.269 52.043 234.034 51.5156L232.997 49.248C232.798 48.8027 232.698 48.3105 232.698 47.7715C232.698 46.7988 233.237 45.709 234.315 44.502C235.042 43.7051 235.763 43.1484 236.478 42.832C237.204 42.5039 238.112 42.3398 239.202 42.3398C239.624 42.3398 240.022 42.3691 240.397 42.4277ZM247.78 42.375L247.552 42.9023H245.073L244.933 43.2012C244.71 43.6699 244.106 45.041 243.122 47.3145C242.724 48.2402 242.161 49.5176 241.435 51.1465C240.579 53.0449 240.151 54.2461 240.151 54.75C240.151 55.2539 240.409 55.5059 240.925 55.5059C241.546 55.5059 242.396 55.1426 243.474 54.416L243.755 54.873C243.052 55.4121 242.249 55.8691 241.347 56.2441C240.444 56.6191 239.7 56.8066 239.114 56.8066C238.235 56.8066 237.796 56.4609 237.796 55.7695C237.796 55.2773 238.288 53.8945 239.272 51.6211L241.101 47.4551C242.12 45.0996 242.712 43.7168 242.876 43.3066L243.052 42.9023H240.749L240.995 42.375H241.224C242.231 42.375 242.905 42.2168 243.245 41.9004C243.597 41.584 244.071 40.6934 244.669 39.2285C244.845 39.2402 244.962 39.2461 245.021 39.2461C245.583 39.2461 246.14 39.1758 246.69 39.0352C246.562 39.375 246.333 39.9316 246.005 40.7051L245.478 41.9707L245.302 42.375H247.78ZM259.61 42.498C258.79 44.0684 257.794 46.2773 256.622 49.125C255.45 51.9727 254.853 53.6309 254.829 54.0996C254.817 54.4629 255.017 54.6445 255.427 54.6445C255.743 54.6445 256.206 54.5273 256.815 54.293L257.044 54.7676C256.188 55.2129 254.776 55.8105 252.808 56.5605L252.333 56.7363C252.638 54.8262 253.224 52.7871 254.091 50.6191C252.579 52.5293 251.144 54.0293 249.784 55.1191C248.437 56.1973 247.323 56.7363 246.444 56.7363C245.671 56.7363 245.284 56.332 245.284 55.5234C245.284 54.5508 246.005 52.5527 247.446 49.5293L248.853 46.5762C249.286 45.6621 249.515 45.0059 249.538 44.6074C249.562 44.2207 249.362 44.0273 248.94 44.0273C248.753 44.0273 248.425 44.0977 247.956 44.2383L247.815 43.7109L248.097 43.623C249.737 43.1426 251.103 42.668 252.192 42.1992C252.192 43.1367 251.671 44.6777 250.628 46.8223L249.099 49.9512C247.927 52.3535 247.341 53.8242 247.341 54.3633C247.341 54.8672 247.563 55.1191 248.009 55.1191C249.146 55.1191 250.651 53.9355 252.526 51.5684C254.401 49.1895 255.896 46.5703 257.009 43.7109L257.237 43.1484C257.917 43.0781 258.708 42.8613 259.61 42.498ZM276.556 32.9004C276.509 33.6738 275.958 35.3906 274.903 38.0508L273.603 41.3203L273.093 42.5859C273.796 42.8672 274.177 43.4414 274.235 44.3086C273.743 44.1445 273.181 44.0449 272.548 44.0098L272.425 44.3262L270.157 50.0918C269.103 52.7754 268.575 54.3047 268.575 54.6797C268.575 55.0078 268.733 55.1719 269.05 55.1719C269.378 55.1719 269.917 54.9434 270.667 54.4863C270.702 54.4629 270.761 54.4277 270.843 54.3809L271.177 54.8027C269.911 55.6816 268.142 56.4434 265.868 57.0879L266.009 56.5078C266.384 55.1016 266.999 53.3438 267.854 51.2344C268.124 50.5898 268.37 49.9863 268.593 49.4238L270.562 44.291L270.737 43.9043C269.472 43.9043 268.106 44.2441 266.642 44.9238C265.177 45.5918 263.894 46.4648 262.792 47.543C260.729 49.5938 259.698 51.7031 259.698 53.8711C259.698 54.8672 260.062 55.3652 260.788 55.3652C261.503 55.3652 262.394 54.873 263.46 53.8887C264.538 52.9043 265.487 51.709 266.308 50.3027C267.081 48.9668 267.714 47.4727 268.206 45.8203C268.405 46.2539 268.505 46.7168 268.505 47.209C268.505 48.1816 268.083 49.3125 267.239 50.6016C266.407 51.8906 265.288 53.1387 263.882 54.3457C261.784 56.127 260.149 57.0176 258.978 57.0176C258.087 57.0176 257.642 56.4609 257.642 55.3477C257.642 54.375 257.952 53.2559 258.573 51.9902C259.206 50.7246 260.044 49.5176 261.087 48.3691C264.005 45.1699 267.397 43.2422 271.265 42.5859L271.739 41.373L273.005 38.0508C273.38 37.0898 273.573 36.4336 273.585 36.082C273.608 35.5781 273.356 35.3262 272.829 35.3262C272.524 35.3262 272.185 35.4023 271.81 35.5547L271.599 35.0273L271.88 34.9219C273.79 34.207 275.349 33.5332 276.556 32.9004ZM279.491 41.9707V42.1641C279.491 43.2656 278.765 45.4453 277.312 48.7031L276.011 51.6562C275.319 53.2383 274.962 54.2051 274.938 54.5566C274.927 54.9199 275.126 55.0898 275.536 55.0664C275.771 55.0547 276.157 54.9316 276.696 54.6973L276.925 55.207C275.085 56.0859 273.614 56.7129 272.513 57.0879C272.571 55.9863 272.747 54.9727 273.04 54.0469C273.345 53.1094 273.995 51.5625 274.991 49.4062C276.257 46.6406 276.901 45.0234 276.925 44.5547C276.948 44.1914 276.796 44.0098 276.468 44.0098C276.315 44.0098 276.116 44.0508 275.87 44.1328L275.132 44.3965C275.085 44.4082 274.974 44.4492 274.798 44.5195L274.622 43.957L274.991 43.834C276.292 43.3535 277.616 42.8145 278.964 42.2168L279.491 41.9707ZM280.511 37.4707C281.05 37.4707 281.319 37.7402 281.319 38.2793C281.319 38.584 281.196 38.8594 280.95 39.1055C280.716 39.3516 280.446 39.4746 280.142 39.4746C279.591 39.4746 279.315 39.2051 279.315 38.666C279.315 38.3613 279.433 38.0859 279.667 37.8398C279.913 37.5938 280.194 37.4707 280.511 37.4707ZM291.638 44.0273C291.017 43.9688 290.501 43.9395 290.091 43.9395C287.009 43.9395 284.647 45.123 283.007 47.4902C282.362 48.4277 281.817 49.5059 281.372 50.7246C280.927 51.9316 280.704 52.9453 280.704 53.7656C280.704 54.3398 280.868 54.8145 281.196 55.1895C281.536 55.5527 281.964 55.7344 282.479 55.7344C283.698 55.7344 285.046 54.7559 286.522 52.7988C287.999 50.8418 288.737 49.0488 288.737 47.4199C288.737 47.0566 288.638 46.752 288.438 46.5059C288.251 46.248 288.022 46.1191 287.753 46.1191C286.815 46.1191 285.919 47.0566 285.063 48.9316C285.005 48.6973 284.976 48.4922 284.976 48.3164C284.976 47.5898 285.427 46.8281 286.329 46.0312C287.231 45.2344 288.087 44.8359 288.896 44.8359C289.435 44.8359 289.892 45.0586 290.267 45.5039C290.642 45.9375 290.829 46.4707 290.829 47.1035C290.829 49.2246 289.476 51.4746 286.769 53.8535C284.448 55.916 282.521 56.9473 280.985 56.9473C280.317 56.9473 279.761 56.707 279.315 56.2266C278.882 55.7461 278.665 55.1426 278.665 54.416C278.665 52.8105 279.222 51.1348 280.335 49.3887C281.46 47.6309 282.937 46.1191 284.765 44.8535C285.772 44.1621 286.868 43.5938 288.052 43.1484C289.247 42.7031 290.261 42.4805 291.093 42.4805C291.608 42.4805 291.866 42.709 291.866 43.166C291.866 43.3418 291.79 43.6289 291.638 44.0273Z" fill="black"/>
</svg>
