<svg width="26" height="25" viewBox="0 0 26 25" fill="none" xmlns="http://www.w3.org/2000/svg">
<g clip-path="url(#clip0_133_167)">
<path d="M20.1672 15.0826C19.6447 14.5636 19.0145 14.2861 18.3467 14.2861C17.6842 14.2861 17.0486 14.5585 16.5046 15.0775L14.8026 16.6962C14.6626 16.6242 14.5226 16.5574 14.3879 16.4906C14.194 16.3981 14.0109 16.3108 13.8547 16.2183C12.2604 15.2522 10.8116 13.9932 9.42199 12.3642C8.74873 11.5523 8.29631 10.8688 7.96776 10.1751C8.40941 9.78967 8.81875 9.38884 9.21732 9.00343C9.36813 8.85955 9.51894 8.71052 9.66975 8.56664C10.8008 7.4875 10.8008 6.08975 9.66975 5.01061L8.19936 3.60772C8.03239 3.44842 7.86004 3.28398 7.69845 3.11954C7.37529 2.80093 7.03597 2.47205 6.68588 2.16373C6.16343 1.6704 5.53865 1.40833 4.88155 1.40833C4.22445 1.40833 3.5889 1.6704 3.0503 2.16373C3.04491 2.16886 3.04491 2.16886 3.03952 2.174L1.20827 3.9366C0.518855 4.59437 0.125674 5.39602 0.0394968 6.32613C-0.0897684 7.82666 0.373432 9.2244 0.728911 10.1391C1.60145 12.3847 2.90487 14.466 4.84924 16.6962C7.20832 19.3838 10.0468 21.5061 13.2892 23.0015C14.528 23.5616 16.1815 24.2245 18.0289 24.3375C18.142 24.3427 18.2605 24.3478 18.3682 24.3478C19.6124 24.3478 20.6573 23.9213 21.476 23.0734C21.4813 23.0631 21.4921 23.058 21.4975 23.0477C21.7776 22.724 22.1007 22.4311 22.4401 22.1176C22.6717 21.9069 22.9086 21.6859 23.1402 21.4547C23.6735 20.9254 23.9535 20.3087 23.9535 19.6767C23.9535 19.0395 23.6681 18.4279 23.1241 17.9141L20.1672 15.0826ZM22.0954 20.4937C22.09 20.4937 22.09 20.4989 22.0954 20.4937C21.8853 20.7096 21.6699 20.9048 21.4383 21.1207C21.0882 21.4393 20.7327 21.7733 20.3988 22.1484C19.8548 22.7034 19.2138 22.9655 18.3736 22.9655C18.2928 22.9655 18.2066 22.9655 18.1258 22.9603C16.5262 22.8627 15.0396 22.2666 13.9247 21.7579C10.8762 20.3499 8.19936 18.3509 5.97492 15.8175C4.13828 13.7054 2.91026 11.7527 2.09697 9.65606C1.59606 8.3765 1.41294 7.37958 1.49373 6.43919C1.54759 5.83795 1.78996 5.33949 2.237 4.91297L4.07365 3.16065C4.33756 2.92426 4.61764 2.79579 4.89232 2.79579C5.23165 2.79579 5.50633 2.99107 5.67869 3.15551C5.68407 3.16065 5.68946 3.16579 5.69485 3.17093C6.02339 3.46384 6.33578 3.76702 6.66433 4.09077C6.8313 4.25521 7.00365 4.41965 7.17601 4.58923L8.6464 5.99211C9.21732 6.53682 9.21732 7.04042 8.6464 7.58513C8.4902 7.73416 8.33939 7.88318 8.1832 8.02707C7.73077 8.469 7.29989 8.8801 6.8313 9.28093C6.82053 9.29121 6.80976 9.29635 6.80437 9.30662C6.34117 9.74856 6.42735 10.1802 6.5243 10.4731C6.52968 10.4885 6.53507 10.504 6.54045 10.5194C6.92286 11.4032 7.46147 12.2357 8.28015 13.2275L8.28553 13.2326C9.77208 14.9798 11.3394 16.3416 13.0683 17.3848C13.2892 17.5184 13.5154 17.6263 13.7308 17.7291C13.9247 17.8216 14.1078 17.9089 14.264 18.0014C14.2856 18.0117 14.3071 18.0271 14.3287 18.0374C14.5118 18.1248 14.6842 18.1659 14.8619 18.1659C15.3089 18.1659 15.589 17.8987 15.6806 17.8113L17.5226 16.0538C17.7057 15.8791 17.9966 15.6684 18.3359 15.6684C18.6698 15.6684 18.9445 15.8688 19.1115 16.0436C19.1169 16.0487 19.1169 16.0487 19.1223 16.0538L22.09 18.8853C22.6447 19.4095 22.6447 19.949 22.0954 20.4937Z" fill="black"/>
<path d="M13.7911 5.7917C15.2023 6.0178 16.4842 6.65501 17.5075 7.63138C18.5309 8.60775 19.1933 9.83078 19.4357 11.1771C19.495 11.5163 19.802 11.7527 20.1521 11.7527C20.1951 11.7527 20.2329 11.7475 20.2759 11.7424C20.6745 11.6807 20.9384 11.321 20.8738 10.9408C20.5829 9.31176 19.775 7.82665 18.5416 6.64987C17.3082 5.47309 15.7517 4.70228 14.0443 4.42478C13.6457 4.36312 13.2741 4.61492 13.2041 4.99005C13.134 5.36518 13.3926 5.73003 13.7911 5.7917Z" fill="black"/>
<path d="M25.4896 10.7403C25.0102 8.0579 23.6852 5.61698 21.6493 3.67452C19.6134 1.73207 17.055 0.467927 14.2435 0.0105764C13.8503 -0.0562277 13.4787 0.200711 13.4087 0.575842C13.344 0.956111 13.6079 1.31069 14.0065 1.37749C16.5164 1.78345 18.8055 2.91912 20.626 4.65089C22.4464 6.3878 23.6314 8.57178 24.0569 10.9664C24.1161 11.3056 24.4231 11.542 24.7732 11.542C24.8163 11.542 24.854 11.5368 24.8971 11.5317C25.2903 11.4752 25.5596 11.1155 25.4896 10.7403Z" fill="black"/>
</g>
<defs>
<clipPath id="clip0_133_167">
<rect width="25.5194" height="24.3478" fill="white"/>
</clipPath>
</defs>
</svg>
